<svg width="48" height="48" viewBox="0 0 48 48" fill="none" xmlns="http://www.w3.org/2000/svg">
<path d="M12.18 38H36.18L33.58 40.58C33.2034 40.9566 32.9918 41.4674 32.9918 42C32.9918 42.5326 33.2034 43.0434 33.58 43.42C33.9566 43.7966 34.4674 44.0082 35 44.0082C35.5326 44.0082 36.0434 43.7966 36.42 43.42L42.42 37.42C42.6075 37.2341 42.7562 37.0129 42.8578 36.7692C42.9593 36.5254 43.0116 36.264 43.0116 36C43.0116 35.736 42.9593 35.4746 42.8578 35.2308C42.7562 34.9871 42.6075 34.7659 42.42 34.58L36.42 28.58C36.2341 28.3925 36.0129 28.2438 35.7692 28.1422C35.5254 28.0407 35.264 27.9884 35 27.9884C34.736 27.9884 34.4746 28.0407 34.2308 28.1422C33.9871 28.2438 33.7659 28.3925 33.58 28.58C33.3925 28.7659 33.2438 28.9871 33.1422 29.2308C33.0407 29.4746 32.9884 29.736 32.9884 30C32.9884 30.264 33.0407 30.5254 33.1422 30.7692C33.2438 31.0129 33.3925 31.2341 33.58 31.42L36.18 34H12.18C11.7703 34.008 11.363 33.9351 10.9814 33.7856C10.5998 33.6361 10.2514 33.4129 9.95609 33.1288C9.66078 32.8446 9.42435 32.5051 9.2603 32.1295C9.09626 31.7539 9.0078 31.3497 9 30.94V26C9 25.4696 8.78929 24.9609 8.41421 24.5858C8.03914 24.2107 7.53043 24 7 24C6.46957 24 5.96086 24.2107 5.58579 24.5858C5.21071 24.9609 5 25.4696 5 26V30.94C5.00785 31.875 5.19979 32.7993 5.56487 33.6602C5.92995 34.521 6.46102 35.3015 7.12775 35.9571C7.79448 36.6127 8.58382 37.1305 9.45069 37.4811C10.3176 37.8316 11.245 38.0079 12.18 38V38Z" fill="#231F20"/>
<path d="M11.58 19.42C11.7665 19.6065 11.9879 19.7544 12.2315 19.8553C12.4751 19.9562 12.7363 20.0082 13 20.0082C13.2637 20.0082 13.5249 19.9562 13.7685 19.8553C14.0121 19.7544 14.2335 19.6065 14.42 19.42C14.6065 19.2335 14.7544 19.0121 14.8553 18.7685C14.9562 18.5249 15.0082 18.2637 15.0082 18C15.0082 17.7363 14.9562 17.4751 14.8553 17.2315C14.7544 16.9879 14.6065 16.7665 14.42 16.58L11.82 14H35.82C36.2297 13.992 36.637 14.0649 37.0186 14.2144C37.4002 14.3639 37.7486 14.5871 38.0439 14.8712C38.3392 15.1554 38.5756 15.4949 38.7397 15.8705C38.9037 16.2461 38.9922 16.6503 39 17.06V22C39 22.5304 39.2107 23.0391 39.5858 23.4142C39.9609 23.7893 40.4696 24 41 24C41.5304 24 42.0391 23.7893 42.4142 23.4142C42.7893 23.0391 43 22.5304 43 22V17.06C42.9922 16.125 42.8002 15.2007 42.4351 14.3398C42.07 13.479 41.539 12.6985 40.8722 12.0429C40.2055 11.3873 39.4162 10.8695 38.5493 10.5189C37.6824 10.1684 36.755 9.99209 35.82 10H11.82L14.42 7.42C14.6075 7.23407 14.7562 7.01287 14.8578 6.76915C14.9593 6.52543 15.0116 6.26402 15.0116 6C15.0116 5.73598 14.9593 5.47457 14.8578 5.23085C14.7562 4.98713 14.6075 4.76593 14.42 4.58C14.2341 4.39254 14.0129 4.24375 13.7692 4.14222C13.5254 4.04068 13.264 3.9884 13 3.9884C12.736 3.9884 12.4746 4.04068 12.2308 4.14222C11.9871 4.24375 11.7659 4.39254 11.58 4.58L5.58 10.58C5.39254 10.7659 5.24375 10.9871 5.14222 11.2308C5.04068 11.4746 4.9884 11.736 4.9884 12C4.9884 12.264 5.04068 12.5254 5.14222 12.7692C5.24375 13.0129 5.39254 13.2341 5.58 13.42L11.58 19.42Z" fill="#231F20"/>
</svg>
